<mxfile host="app.diagrams.net" modified="2021-09-13T14:30:17.500Z" agent="5.0 (Macintosh; Intel Mac OS X 10_15_7) AppleWebKit/537.36 (KHTML, like Gecko) Chrome/93.0.4577.63 Safari/537.36" etag="CF2R49QHSWJoFRnViT6F" version="15.1.4" type="github">
  <diagram id="C5RBs43oDa-KdzZeNtuy" name="Page-1">
    <mxGraphModel dx="1298" dy="1890" grid="1" gridSize="10" guides="1" tooltips="1" connect="1" arrows="1" fold="1" page="1" pageScale="1" pageWidth="827" pageHeight="1169" math="0" shadow="0">
      <root>
        <mxCell id="WIyWlLk6GJQsqaUBKTNV-0" />
        <mxCell id="WIyWlLk6GJQsqaUBKTNV-1" parent="WIyWlLk6GJQsqaUBKTNV-0" />
        <mxCell id="MhGfiptx3XRq-OcdPpNZ-18" value="" style="html=1;points=[];perimeter=orthogonalPerimeter;fontSize=12;" vertex="1" parent="WIyWlLk6GJQsqaUBKTNV-1">
          <mxGeometry x="150" y="70" width="520" height="600" as="geometry" />
        </mxCell>
        <mxCell id="MhGfiptx3XRq-OcdPpNZ-12" style="edgeStyle=orthogonalEdgeStyle;rounded=0;orthogonalLoop=1;jettySize=auto;html=1;entryX=0;entryY=0.5;entryDx=0;entryDy=0;fontSize=12;" edge="1" parent="WIyWlLk6GJQsqaUBKTNV-1" source="MhGfiptx3XRq-OcdPpNZ-6" target="MhGfiptx3XRq-OcdPpNZ-10">
          <mxGeometry relative="1" as="geometry" />
        </mxCell>
        <mxCell id="MhGfiptx3XRq-OcdPpNZ-13" style="edgeStyle=orthogonalEdgeStyle;rounded=0;orthogonalLoop=1;jettySize=auto;html=1;entryX=0;entryY=0.5;entryDx=0;entryDy=0;fontSize=12;" edge="1" parent="WIyWlLk6GJQsqaUBKTNV-1" source="MhGfiptx3XRq-OcdPpNZ-6" target="MhGfiptx3XRq-OcdPpNZ-11">
          <mxGeometry relative="1" as="geometry" />
        </mxCell>
        <mxCell id="MhGfiptx3XRq-OcdPpNZ-64" style="edgeStyle=none;rounded=0;orthogonalLoop=1;jettySize=auto;html=1;entryX=0;entryY=0.5;entryDx=0;entryDy=0;shadow=0;fontSize=12;" edge="1" parent="WIyWlLk6GJQsqaUBKTNV-1" source="MhGfiptx3XRq-OcdPpNZ-6" target="MhGfiptx3XRq-OcdPpNZ-23">
          <mxGeometry relative="1" as="geometry">
            <Array as="points">
              <mxPoint x="70" y="180" />
            </Array>
          </mxGeometry>
        </mxCell>
        <mxCell id="MhGfiptx3XRq-OcdPpNZ-87" value="Input 4 CarNumber" style="edgeLabel;html=1;align=center;verticalAlign=middle;resizable=0;points=[];" vertex="1" connectable="0" parent="MhGfiptx3XRq-OcdPpNZ-64">
          <mxGeometry x="0.3896" y="-1" relative="1" as="geometry">
            <mxPoint as="offset" />
          </mxGeometry>
        </mxCell>
        <mxCell id="MhGfiptx3XRq-OcdPpNZ-68" style="edgeStyle=none;rounded=0;orthogonalLoop=1;jettySize=auto;html=1;exitX=1;exitY=0.3333333333333333;exitDx=0;exitDy=0;exitPerimeter=0;entryX=0;entryY=1;entryDx=0;entryDy=0;shadow=0;fontSize=12;" edge="1" parent="WIyWlLk6GJQsqaUBKTNV-1" source="MhGfiptx3XRq-OcdPpNZ-6" target="MhGfiptx3XRq-OcdPpNZ-30">
          <mxGeometry relative="1" as="geometry">
            <Array as="points">
              <mxPoint x="390" y="320" />
            </Array>
          </mxGeometry>
        </mxCell>
        <mxCell id="MhGfiptx3XRq-OcdPpNZ-69" value="select car number" style="edgeLabel;html=1;align=center;verticalAlign=middle;resizable=0;points=[];" vertex="1" connectable="0" parent="MhGfiptx3XRq-OcdPpNZ-68">
          <mxGeometry x="0.0215" y="1" relative="1" as="geometry">
            <mxPoint as="offset" />
          </mxGeometry>
        </mxCell>
        <mxCell id="MhGfiptx3XRq-OcdPpNZ-96" style="edgeStyle=none;rounded=0;orthogonalLoop=1;jettySize=auto;html=1;exitX=1;exitY=1;exitDx=0;exitDy=0;exitPerimeter=0;entryX=0;entryY=1;entryDx=0;entryDy=0;shadow=0;fontSize=12;startArrow=none;startFill=0;endArrow=classic;endFill=1;" edge="1" parent="WIyWlLk6GJQsqaUBKTNV-1" source="MhGfiptx3XRq-OcdPpNZ-6" target="MhGfiptx3XRq-OcdPpNZ-42">
          <mxGeometry relative="1" as="geometry">
            <Array as="points">
              <mxPoint x="100" y="590" />
            </Array>
          </mxGeometry>
        </mxCell>
        <mxCell id="MhGfiptx3XRq-OcdPpNZ-97" value="purchase" style="edgeLabel;html=1;align=center;verticalAlign=middle;resizable=0;points=[];" vertex="1" connectable="0" parent="MhGfiptx3XRq-OcdPpNZ-96">
          <mxGeometry x="0.2951" relative="1" as="geometry">
            <mxPoint as="offset" />
          </mxGeometry>
        </mxCell>
        <mxCell id="MhGfiptx3XRq-OcdPpNZ-6" value="Client" style="shape=umlActor;verticalLabelPosition=bottom;verticalAlign=top;html=1;fontSize=12;" vertex="1" parent="WIyWlLk6GJQsqaUBKTNV-1">
          <mxGeometry x="39" y="290" width="60" height="100" as="geometry" />
        </mxCell>
        <mxCell id="MhGfiptx3XRq-OcdPpNZ-24" value="" style="edgeStyle=orthogonalEdgeStyle;rounded=0;orthogonalLoop=1;jettySize=auto;html=1;fontSize=12;dashed=1;startArrow=classic;startFill=1;endArrow=none;endFill=0;" edge="1" parent="WIyWlLk6GJQsqaUBKTNV-1" source="MhGfiptx3XRq-OcdPpNZ-10" target="MhGfiptx3XRq-OcdPpNZ-23">
          <mxGeometry relative="1" as="geometry" />
        </mxCell>
        <mxCell id="MhGfiptx3XRq-OcdPpNZ-92" value="&amp;lt;&amp;lt;include&amp;gt;&amp;gt;" style="edgeLabel;html=1;align=center;verticalAlign=middle;resizable=0;points=[];" vertex="1" connectable="0" parent="MhGfiptx3XRq-OcdPpNZ-24">
          <mxGeometry x="-0.1608" relative="1" as="geometry">
            <mxPoint as="offset" />
          </mxGeometry>
        </mxCell>
        <mxCell id="MhGfiptx3XRq-OcdPpNZ-10" value="&lt;b&gt;Purchase Parking Pass&lt;/b&gt;" style="ellipse;whiteSpace=wrap;html=1;fontSize=12;" vertex="1" parent="WIyWlLk6GJQsqaUBKTNV-1">
          <mxGeometry x="180" y="218" width="140" height="70" as="geometry" />
        </mxCell>
        <mxCell id="MhGfiptx3XRq-OcdPpNZ-11" value="&lt;b&gt;Purchase monthly Parking Pass&lt;/b&gt;" style="ellipse;whiteSpace=wrap;html=1;fontSize=12;" vertex="1" parent="WIyWlLk6GJQsqaUBKTNV-1">
          <mxGeometry x="180" y="388" width="140" height="70" as="geometry" />
        </mxCell>
        <mxCell id="MhGfiptx3XRq-OcdPpNZ-22" value="Smart Pay Station" style="text;align=center;fontStyle=1;verticalAlign=middle;spacingLeft=3;spacingRight=3;strokeColor=none;rotatable=0;points=[[0,0.5],[1,0.5]];portConstraint=eastwest;html=1;" vertex="1" parent="WIyWlLk6GJQsqaUBKTNV-1">
          <mxGeometry x="374" y="70" width="80" height="26" as="geometry" />
        </mxCell>
        <mxCell id="MhGfiptx3XRq-OcdPpNZ-40" style="edgeStyle=orthogonalEdgeStyle;rounded=0;orthogonalLoop=1;jettySize=auto;html=1;entryX=0.5;entryY=0;entryDx=0;entryDy=0;entryPerimeter=0;fontSize=12;dashed=1;startArrow=none;startFill=0;endArrow=classic;endFill=1;" edge="1" parent="WIyWlLk6GJQsqaUBKTNV-1" source="MhGfiptx3XRq-OcdPpNZ-23" target="MhGfiptx3XRq-OcdPpNZ-28">
          <mxGeometry relative="1" as="geometry">
            <Array as="points">
              <mxPoint x="420" y="110" />
              <mxPoint x="760" y="110" />
            </Array>
          </mxGeometry>
        </mxCell>
        <mxCell id="MhGfiptx3XRq-OcdPpNZ-90" style="edgeStyle=none;rounded=0;orthogonalLoop=1;jettySize=auto;html=1;entryX=1;entryY=0;entryDx=0;entryDy=0;shadow=0;fontSize=12;startArrow=classic;startFill=1;endArrow=none;endFill=0;dashed=1;" edge="1" parent="WIyWlLk6GJQsqaUBKTNV-1" source="MhGfiptx3XRq-OcdPpNZ-23" target="MhGfiptx3XRq-OcdPpNZ-30">
          <mxGeometry relative="1" as="geometry">
            <Array as="points">
              <mxPoint x="550" y="130" />
              <mxPoint x="630" y="120" />
            </Array>
          </mxGeometry>
        </mxCell>
        <mxCell id="MhGfiptx3XRq-OcdPpNZ-91" value="&amp;lt;&amp;lt;include&amp;gt;&amp;gt;" style="edgeLabel;html=1;align=center;verticalAlign=middle;resizable=0;points=[];" vertex="1" connectable="0" parent="MhGfiptx3XRq-OcdPpNZ-90">
          <mxGeometry x="-0.4382" y="2" relative="1" as="geometry">
            <mxPoint as="offset" />
          </mxGeometry>
        </mxCell>
        <mxCell id="MhGfiptx3XRq-OcdPpNZ-23" value="&lt;b&gt;Input 4 Car Number&lt;/b&gt;" style="ellipse;whiteSpace=wrap;html=1;fontSize=12;" vertex="1" parent="WIyWlLk6GJQsqaUBKTNV-1">
          <mxGeometry x="350" y="140" width="140" height="70" as="geometry" />
        </mxCell>
        <mxCell id="MhGfiptx3XRq-OcdPpNZ-28" value="system" style="shape=umlActor;verticalLabelPosition=bottom;verticalAlign=top;html=1;" vertex="1" parent="WIyWlLk6GJQsqaUBKTNV-1">
          <mxGeometry x="740" y="280" width="40" height="70" as="geometry" />
        </mxCell>
        <mxCell id="MhGfiptx3XRq-OcdPpNZ-43" value="" style="edgeStyle=orthogonalEdgeStyle;rounded=0;orthogonalLoop=1;jettySize=auto;html=1;fontSize=12;dashed=1;startArrow=none;startFill=0;endArrow=classic;endFill=1;" edge="1" parent="WIyWlLk6GJQsqaUBKTNV-1" source="MhGfiptx3XRq-OcdPpNZ-30">
          <mxGeometry relative="1" as="geometry">
            <mxPoint x="740" y="350" as="targetPoint" />
            <Array as="points">
              <mxPoint x="581" y="280" />
              <mxPoint x="680" y="280" />
              <mxPoint x="680" y="320" />
              <mxPoint x="740" y="320" />
            </Array>
          </mxGeometry>
        </mxCell>
        <mxCell id="MhGfiptx3XRq-OcdPpNZ-94" style="edgeStyle=none;rounded=0;orthogonalLoop=1;jettySize=auto;html=1;entryX=0.5;entryY=0;entryDx=0;entryDy=0;shadow=0;dashed=1;fontSize=12;startArrow=classic;startFill=1;endArrow=none;endFill=0;" edge="1" parent="WIyWlLk6GJQsqaUBKTNV-1" source="MhGfiptx3XRq-OcdPpNZ-30" target="MhGfiptx3XRq-OcdPpNZ-42">
          <mxGeometry relative="1" as="geometry" />
        </mxCell>
        <mxCell id="MhGfiptx3XRq-OcdPpNZ-95" value="&amp;lt;&amp;lt;include&amp;gt;&amp;gt;" style="edgeLabel;html=1;align=center;verticalAlign=middle;resizable=0;points=[];" vertex="1" connectable="0" parent="MhGfiptx3XRq-OcdPpNZ-94">
          <mxGeometry x="0.1803" y="2" relative="1" as="geometry">
            <mxPoint as="offset" />
          </mxGeometry>
        </mxCell>
        <mxCell id="MhGfiptx3XRq-OcdPpNZ-30" value="Show car number list :&amp;nbsp;&lt;br&gt;&lt;b&gt;Select Car Number&lt;/b&gt;" style="ellipse;whiteSpace=wrap;html=1;fontSize=12;" vertex="1" parent="WIyWlLk6GJQsqaUBKTNV-1">
          <mxGeometry x="511" y="140" width="140" height="100" as="geometry" />
        </mxCell>
        <mxCell id="MhGfiptx3XRq-OcdPpNZ-41" value="Car Number List" style="html=1;verticalAlign=bottom;endArrow=open;dashed=1;endSize=8;fontSize=12;" edge="1" parent="WIyWlLk6GJQsqaUBKTNV-1">
          <mxGeometry relative="1" as="geometry">
            <mxPoint x="750" y="270" as="sourcePoint" />
            <mxPoint x="650" y="174.5" as="targetPoint" />
          </mxGeometry>
        </mxCell>
        <mxCell id="MhGfiptx3XRq-OcdPpNZ-45" value="" style="edgeStyle=orthogonalEdgeStyle;rounded=0;orthogonalLoop=1;jettySize=auto;html=1;fontSize=12;dashed=1;startArrow=classic;startFill=1;endArrow=none;endFill=0;" edge="1" parent="WIyWlLk6GJQsqaUBKTNV-1" source="MhGfiptx3XRq-OcdPpNZ-42" target="MhGfiptx3XRq-OcdPpNZ-44">
          <mxGeometry relative="1" as="geometry" />
        </mxCell>
        <mxCell id="MhGfiptx3XRq-OcdPpNZ-85" value="&amp;lt;&amp;lt;include&amp;gt;&amp;gt;" style="edgeLabel;html=1;align=center;verticalAlign=middle;resizable=0;points=[];" vertex="1" connectable="0" parent="MhGfiptx3XRq-OcdPpNZ-45">
          <mxGeometry x="-0.5814" y="1" relative="1" as="geometry">
            <mxPoint as="offset" />
          </mxGeometry>
        </mxCell>
        <mxCell id="MhGfiptx3XRq-OcdPpNZ-42" value="Show car Info&lt;br&gt;&lt;div&gt;&lt;span&gt;[car number,&lt;/span&gt;&lt;/div&gt;&lt;div&gt;&lt;span&gt;parking price,&lt;/span&gt;&lt;/div&gt;&lt;div&gt;&lt;span&gt;discount amount,&lt;/span&gt;&lt;/div&gt;&lt;div&gt;&lt;span&gt;parking time]&lt;/span&gt;&lt;/div&gt;&lt;br&gt;&lt;b&gt;Paying credit card&lt;/b&gt;" style="ellipse;whiteSpace=wrap;html=1;fontSize=12;align=center;" vertex="1" parent="WIyWlLk6GJQsqaUBKTNV-1">
          <mxGeometry x="414" y="280" width="230" height="180" as="geometry" />
        </mxCell>
        <mxCell id="MhGfiptx3XRq-OcdPpNZ-48" style="edgeStyle=orthogonalEdgeStyle;rounded=0;orthogonalLoop=1;jettySize=auto;html=1;entryX=1;entryY=0.3333333333333333;entryDx=0;entryDy=0;entryPerimeter=0;fontSize=12;dashed=1;" edge="1" parent="WIyWlLk6GJQsqaUBKTNV-1" source="MhGfiptx3XRq-OcdPpNZ-44" target="MhGfiptx3XRq-OcdPpNZ-28">
          <mxGeometry relative="1" as="geometry" />
        </mxCell>
        <mxCell id="MhGfiptx3XRq-OcdPpNZ-44" value="payment finished" style="ellipse;whiteSpace=wrap;html=1;fontSize=12;" vertex="1" parent="WIyWlLk6GJQsqaUBKTNV-1">
          <mxGeometry x="505" y="540" width="146" height="60" as="geometry" />
        </mxCell>
        <mxCell id="MhGfiptx3XRq-OcdPpNZ-54" value="selected car info" style="html=1;verticalAlign=bottom;endArrow=open;dashed=1;endSize=8;fontSize=12;exitX=0;exitY=1;exitDx=0;exitDy=0;exitPerimeter=0;" edge="1" parent="WIyWlLk6GJQsqaUBKTNV-1" source="MhGfiptx3XRq-OcdPpNZ-28">
          <mxGeometry relative="1" as="geometry">
            <mxPoint x="740" y="310" as="sourcePoint" />
            <mxPoint x="640" y="380" as="targetPoint" />
          </mxGeometry>
        </mxCell>
        <mxCell id="MhGfiptx3XRq-OcdPpNZ-66" value="item: 4 car number" style="label;fontStyle=0;strokeColor=none;fillColor=none;align=left;verticalAlign=top;overflow=hidden;spacingLeft=28;spacingRight=4;rotatable=0;points=[[0,0.5],[1,0.5]];portConstraint=eastwest;imageWidth=16;imageHeight=16;image=img/clipart/Gear_128x128.png;html=1;" vertex="1" parent="WIyWlLk6GJQsqaUBKTNV-1">
          <mxGeometry x="490" y="90" width="150" height="26" as="geometry" />
        </mxCell>
        <mxCell id="MhGfiptx3XRq-OcdPpNZ-72" value="&lt;h2 id=&quot;usecase-diagram&quot; style=&quot;box-sizing: inherit ; font-size: 2rem ; line-height: 1.5 ; margin-bottom: 1rem ; color: rgb(34 , 36 , 38) ; font-family: , , &amp;#34;helvetica neue&amp;#34; , &amp;#34;apple sd gothic neo&amp;#34; , &amp;#34;malgun gothic&amp;#34; , &amp;#34;맑은 고딕&amp;#34; , , &amp;#34;nanum gothic&amp;#34; , &amp;#34;noto sans kr&amp;#34; , &amp;#34;noto sans cjk kr&amp;#34; , &amp;#34;arial&amp;#34; , , &amp;#34;dotum&amp;#34; , &amp;#34;tahoma&amp;#34; , &amp;#34;geneva&amp;#34; , sans-serif ; letter-spacing: -0.072px&quot;&gt;UseCase Diagram&lt;/h2&gt;" style="text;html=1;align=center;verticalAlign=middle;resizable=0;points=[];autosize=1;strokeColor=none;fillColor=none;" vertex="1" parent="WIyWlLk6GJQsqaUBKTNV-1">
          <mxGeometry x="280" y="-30" width="290" height="100" as="geometry" />
        </mxCell>
      </root>
    </mxGraphModel>
  </diagram>
</mxfile>
